<?xml version="1.0" encoding="utf-8"?>
<!-- Generator: Adobe Illustrator 16.1.0, SVG Export Plug-In . SVG Version: 6.00 Build 0)  -->
<svg version="1.2" baseProfile="tiny" id="Layer_1" xmlns="http://www.w3.org/2000/svg" xmlns:xlink="http://www.w3.org/1999/xlink"
	 x="0px" y="0px" width="17.008px" height="17.008px" viewBox="0 0 17.008 17.008" xml:space="preserve">
<g>
	
	
	
	<path fill="#FFFFFF" d="M13.721,0H3.287C1.476,0,0.003,1.472,0,3.281v10.444c0.003,1.811,1.476,3.282,3.287,3.282h10.434
		c1.813,0,3.287-1.475,3.287-3.287V6.758V3.286C17.008,1.474,15.533,0,13.721,0z M14.664,1.96l0.376-0.001v0.374v2.509l-2.874,0.009
		l-0.01-2.883L14.664,1.96z M6.078,6.758C6.621,6.004,7.504,5.51,8.504,5.51c0.999,0,1.883,0.494,2.427,1.248
		c0.355,0.492,0.567,1.094,0.567,1.746c0,1.65-1.344,2.993-2.994,2.993s-2.993-1.343-2.993-2.993
		C5.511,7.852,5.723,7.25,6.078,6.758z M15.351,13.721c0,0.899-0.73,1.63-1.63,1.63H3.287c-0.899,0-1.629-0.73-1.629-1.63V6.758
		h2.539c-0.22,0.54-0.343,1.129-0.343,1.746c0,2.564,2.086,4.651,4.65,4.651s4.65-2.087,4.65-4.651c0-0.617-0.124-1.206-0.343-1.746
		h2.539V13.721z"/>
</g>
</svg>
