<?xml version="1.0" encoding="utf-8"?>
<!-- Generator: Adobe Illustrator 15.1.0, SVG Export Plug-In . SVG Version: 6.00 Build 0)  -->
<svg version="1.2" baseProfile="tiny" id="Layer_1" xmlns="http://www.w3.org/2000/svg" xmlns:xlink="http://www.w3.org/1999/xlink"
	 x="0px" y="0px" width="17.037px" height="13.846px" viewBox="0 0 17.037 13.846" xml:space="preserve">
<path fill="#FFFFFF" d="M16.566,0.256c-0.676,0.401-1.422,0.691-2.221,0.847C13.71,0.424,12.801,0,11.795,0
	C9.866,0,8.301,1.565,8.301,3.495c0,0.274,0.03,0.54,0.09,0.796C5.486,4.145,2.911,2.755,1.186,0.638
	C0.885,1.157,0.713,1.757,0.713,2.397c0,1.212,0.617,2.282,1.555,2.909C1.695,5.289,1.156,5.13,0.684,4.87v0.043
	c0,1.694,1.205,3.107,2.805,3.427C3.195,8.422,2.887,8.463,2.567,8.463c-0.225,0-0.444-0.021-0.657-0.062
	c0.444,1.388,1.735,2.399,3.265,2.426c-1.196,0.938-2.704,1.497-4.341,1.497c-0.282,0-0.561-0.016-0.834-0.048
	c1.547,0.99,3.384,1.568,5.358,1.568c6.43,0,9.945-5.324,9.945-9.943c0-0.152-0.003-0.304-0.01-0.453
	c0.684-0.493,1.277-1.108,1.744-1.809c-0.626,0.278-1.301,0.466-2.007,0.55C15.752,1.757,16.306,1.072,16.566,0.256z"/>
</svg>
